<svg xmlns="http://www.w3.org/2000/svg" viewBox="0 0 32 32"><defs><style>.cls-1{fill:#68c7d3;}.cls-2{fill:#a1d8df;}.cls-3{fill:#d1e6e9;}.cls-4{fill:#30acc2;}</style></defs><title>Hot Stone</title><g id="Hot_Stone" data-name="Hot Stone"><ellipse class="cls-1" cx="14" cy="21" rx="13" ry="6"/><path class="cls-2" d="M23,15c0,2.76-4.48,5-10,5S3,17.76,3,15C3,10.2,23,6.69,23,15Z"/><path class="cls-3" d="M22,9c0,2.21-3.58,4-8,4S6,11.21,6,9C6,2.07,22,5.49,22,9Z"/><path class="cls-4" d="M30.66,15.84a5.85,5.85,0,0,1-3,3.34,5.87,5.87,0,0,1,.49,4.48c-1.42-.23-2.81-.35-4.11-1.85a5.83,5.83,0,0,1-4.11,1.85c-.23-1.43-.53-2.78.49-4.48a5.94,5.94,0,0,1-3-3.34c1.27-.64,2.44-1.37,4.42-.92A5.87,5.87,0,0,1,24,11c1,1,2.05,1.92,2.24,3.92A5.86,5.86,0,0,1,30.66,15.84Z"/><circle class="cls-1" cx="24" cy="18" r="2"/></g></svg>